<svg width="70" height="88" viewBox="0 0 70 88" fill="none" xmlns="http://www.w3.org/2000/svg">
<path opacity="0.2" d="M45.4122 35.2L44.6606 34.5403L43.4702 35.8966L45.2513 36.187L45.4122 35.2ZM62.3322 43.48L61.5916 44.152L61.5979 44.1589L62.3322 43.48ZM64.3722 72.88L65.2193 73.4115L65.2239 73.4041L64.3722 72.88ZM52.6122 82.72L52.187 81.8149L52.1817 81.8174L52.6122 82.72ZM15.8922 84.16L15.621 85.1225L15.629 85.1248L15.637 85.1269L15.8922 84.16ZM1.37219 77.44L0.480655 76.987L0.092564 77.7509L0.787883 78.2515L1.37219 77.44ZM8.93219 62.56L9.53219 61.76L8.57986 61.0458L8.04066 62.107L8.93219 62.56ZM19.9722 68.2L19.6614 69.1505L19.6723 69.154L19.6832 69.1573L19.9722 68.2ZM44.4522 67.36L45.0014 68.1957L45.0096 68.1903L45.0177 68.1847L44.4522 67.36ZM24.0522 49H23.0522V50H24.0522V49ZM24.0522 36.16L23.3028 35.4979L23.0522 35.7815V36.16H24.0522ZM41.3322 16.6L42.0816 17.2621L43.55 15.6H41.3322V16.6ZM5.57219 16.6H4.57219V17.6H5.57219V16.6ZM5.57219 0.999994V-5.72205e-06H4.57219V0.999994H5.57219ZM64.3722 0.999994H65.3722V-5.72205e-06H64.3722V0.999994ZM64.3722 13.6L65.1237 14.2597L65.3722 13.9766V13.6H64.3722ZM45.2513 36.187C52.4511 37.3608 57.8617 40.0414 61.5916 44.152L63.0728 42.808C58.9627 38.2786 53.0933 35.4391 45.5731 34.213L45.2513 36.187ZM61.5979 44.1589C65.3303 48.1959 67.2122 53.2258 67.2122 59.32H69.2122C69.2122 52.7742 67.1741 47.2441 63.0665 42.8011L61.5979 44.1589ZM67.2122 59.32C67.2122 64.0148 65.9836 68.3534 63.5205 72.3559L65.2239 73.4041C67.8807 69.0866 69.2122 64.3852 69.2122 59.32H67.2122ZM63.5251 72.3485C61.0868 76.2347 57.3304 79.399 52.1871 81.8149L53.0373 83.6251C58.4539 81.081 62.5376 77.6853 65.2193 73.4115L63.5251 72.3485ZM52.1817 81.8174C47.1519 84.2162 40.9087 85.44 33.4122 85.44V87.44C41.1157 87.44 47.6725 86.1838 53.0427 83.6226L52.1817 81.8174ZM33.4122 85.44C27.5789 85.44 21.8246 84.6913 16.1473 83.1931L15.637 85.1269C21.4798 86.6687 27.4055 87.44 33.4122 87.44V85.44ZM16.1633 83.1975C10.5742 81.623 5.84509 79.4283 1.95649 76.6285L0.787883 78.2515C4.89928 81.2117 9.85022 83.497 15.621 85.1225L16.1633 83.1975ZM2.26372 77.893L9.82372 63.013L8.04066 62.107L0.480655 76.987L2.26372 77.893ZM8.33219 63.36C11.6276 65.8315 15.4072 67.7597 19.6614 69.1505L20.2829 67.2495C16.2172 65.9203 12.6368 64.0885 9.53219 61.76L8.33219 63.36ZM19.6832 69.1573C24.0163 70.4654 28.4336 71.12 32.9322 71.12V69.12C28.6307 69.12 24.4081 68.4946 20.2612 67.2427L19.6832 69.1573ZM32.9322 71.12C37.9229 71.12 41.9797 70.1814 45.0014 68.1957L43.903 66.5243C41.3247 68.2186 37.7014 69.12 32.9322 69.12V71.12ZM45.0177 68.1847C48.0939 66.0753 49.6522 63.0845 49.6522 59.32H47.6522C47.6522 62.4355 46.4104 64.8047 43.8867 66.5353L45.0177 68.1847ZM49.6522 59.32C49.6522 55.5821 48.2036 52.6693 45.271 50.744C42.4117 48.867 38.2498 48 32.9322 48V50C38.0946 50 41.7927 50.853 44.1734 52.416C46.4807 53.9307 47.6522 56.1779 47.6522 59.32H49.6522ZM32.9322 48H24.0522V50H32.9322V48ZM25.0522 49V36.16H23.0522V49H25.0522ZM24.8016 36.8221L42.0816 17.2621L40.5828 15.9379L23.3028 35.4979L24.8016 36.8221ZM41.3322 15.6H5.57219V17.6H41.3322V15.6ZM6.57219 16.6V0.999994H4.57219V16.6H6.57219ZM5.57219 1.99999H64.3722V-5.72205e-06H5.57219V1.99999ZM63.3722 0.999994V13.6H65.3722V0.999994H63.3722ZM63.6207 12.9403L44.6606 34.5403L46.1637 35.8597L65.1237 14.2597L63.6207 12.9403Z" fill="#27AAE1"/>
</svg>
