<svg width="71" height="88" viewBox="0 0 71 88" fill="none" xmlns="http://www.w3.org/2000/svg">
<path opacity="0.2" d="M69.5494 71.16H70.5494V70.16H69.5494V71.16ZM69.5494 87V88H70.5494V87H69.5494ZM6.06938 87H5.06938V88H6.06938V87ZM6.06938 74.4L5.38275 73.673L5.06938 73.969V74.4H6.06938ZM38.4694 43.8L39.156 44.527L39.1595 44.5237L38.4694 43.8ZM45.4294 35.4L46.3177 35.8595L46.3238 35.8472L45.4294 35.4ZM43.7494 20.64L43.1146 21.4127L43.1296 21.425L43.145 21.4367L43.7494 20.64ZM23.8294 20.04L24.2469 20.9487L24.2569 20.9441L24.2668 20.9392L23.8294 20.04ZM16.3894 26.28L15.8479 27.1207L16.6492 27.6368L17.2031 26.8612L16.3894 26.28ZM2.22938 17.16L1.39942 16.6022L0.830555 17.4485L1.6879 18.0007L2.22938 17.16ZM15.7894 5.75999L16.2164 6.6643L16.2266 6.65936L15.7894 5.75999ZM51.9094 4.67999L51.5003 5.5925L51.5097 5.59672L51.5192 5.60075L51.9094 4.67999ZM62.8294 13.32L62.0028 13.8828L62.0097 13.8929L62.0168 13.9029L62.8294 13.32ZM63.9094 39.24L64.8109 39.6727L63.9094 39.24ZM52.7494 52.92L52.0693 52.1868L52.0629 52.1929L52.7494 52.92ZM33.4294 71.16L32.7429 70.4329L30.9135 72.16H33.4294V71.16ZM68.5494 71.16V87H70.5494V71.16H68.5494ZM69.5494 86H6.06938V88H69.5494V86ZM7.06938 87V74.4H5.06938V87H7.06938ZM6.756 75.127L39.156 44.527L37.7828 43.073L5.38275 73.673L6.756 75.127ZM39.1595 44.5237C42.6252 41.2192 45.0408 38.3278 46.3176 35.8594L44.5412 34.9406C43.4179 37.1122 41.1935 39.8208 37.7793 43.0763L39.1595 44.5237ZM46.3238 35.8472C47.5824 33.3301 48.2294 30.8179 48.2294 28.32H46.2294C46.2294 30.4621 45.6764 32.6699 44.535 34.9528L46.3238 35.8472ZM48.2294 28.32C48.2294 24.7018 46.9635 21.8231 44.3538 19.8433L43.145 21.4367C45.1752 22.9769 46.2294 25.2182 46.2294 28.32H48.2294ZM44.3841 19.8673C41.8931 17.8211 38.3062 16.88 33.7894 16.88V18.88C38.0726 18.88 41.1256 19.7789 43.1146 21.4127L44.3841 19.8673ZM33.7894 16.88C29.9758 16.88 26.5036 17.627 23.3919 19.1408L24.2668 20.9392C27.0752 19.573 30.2429 18.88 33.7894 18.88V16.88ZM23.4119 19.1313C20.2845 20.5682 17.671 22.7652 15.5756 25.6988L17.2031 26.8612C19.1077 24.1948 21.4542 22.2318 24.2469 20.9487L23.4119 19.1313ZM16.9309 25.4393L2.77085 16.3193L1.6879 18.0007L15.8479 27.1207L16.9309 25.4393ZM3.05933 17.7178C6.23037 12.9999 10.6054 9.31387 16.2164 6.66424L15.3624 4.85575C9.45333 7.64613 4.78838 11.5601 1.39942 16.6022L3.05933 17.7178ZM16.2266 6.65936C21.83 3.9355 28.2764 2.56 35.5894 2.56V0.559998C28.0223 0.559998 21.2688 1.9845 15.3522 4.86063L16.2266 6.65936ZM35.5894 2.56C41.7196 2.56 47.0147 3.58173 51.5003 5.5925L52.3184 3.76748C47.524 1.61827 41.9391 0.559998 35.5894 0.559998V2.56ZM51.5192 5.60075C56.0855 7.53562 59.5642 10.3011 62.0028 13.8828L63.656 12.7572C60.9746 8.81888 57.1732 5.82437 52.2995 3.75924L51.5192 5.60075ZM62.0168 13.9029C64.5213 17.394 65.7894 21.5444 65.7894 26.4H67.7894C67.7894 21.1756 66.4175 16.606 63.6419 12.7371L62.0168 13.9029ZM65.7894 26.4C65.7894 30.8145 64.8612 34.9461 63.0079 38.8073L64.8109 39.6727C66.7976 35.5339 67.7894 31.1055 67.7894 26.4H65.7894ZM63.0079 38.8073C61.1672 42.6419 57.5524 47.1011 52.0693 52.1868L53.4294 53.6532C58.9864 48.4989 62.8115 43.8381 64.8109 39.6727L63.0079 38.8073ZM52.0629 52.1929L32.7429 70.4329L34.1159 71.8871L53.4359 53.6471L52.0629 52.1929ZM33.4294 72.16H69.5494V70.16H33.4294V72.16Z" fill="#27AAE1"/>
</svg>
