<svg width="40" height="86" viewBox="0 0 40 86" fill="none" xmlns="http://www.w3.org/2000/svg">
<path opacity="0.2" d="M38.08 0.999994H39.08V-5.72205e-06H38.08V0.999994ZM38.08 85V86H39.08V85H38.08ZM18.64 85H17.64V86H18.64V85ZM18.64 16.6H19.64V15.6H18.64V16.6ZM1.84 16.6H0.84V17.6H1.84V16.6ZM1.84 0.999994V-5.72205e-06H0.84V0.999994H1.84ZM37.08 0.999994V85H39.08V0.999994H37.08ZM38.08 84H18.64V86H38.08V84ZM19.64 85V16.6H17.64V85H19.64ZM18.64 15.6H1.84V17.6H18.64V15.6ZM2.84 16.6V0.999994H0.84V16.6H2.84ZM1.84 1.99999H38.08V-5.72205e-06H1.84V1.99999Z" fill="#27AAE1"/>
</svg>
