<svg width="50" height="51" viewBox="0 0 50 51" fill="none" xmlns="http://www.w3.org/2000/svg">
<path d="M28.4229 24.1481C28.5694 24.4411 28.8625 24.5998 29.1677 24.5998C29.2898 24.5998 29.4241 24.5754 29.5461 24.5143C29.595 24.4899 34.5029 21.9993 36.9202 21.2302C37.3598 21.0959 37.6039 20.6197 37.4574 20.1802C37.3231 19.7407 36.8592 19.4965 36.4075 19.6308C33.8558 20.4366 28.9845 22.915 28.777 23.0127C28.3863 23.2446 28.2154 23.7452 28.4229 24.1481Z" fill="#00093C"/>
<path d="M29.1662 14.613C29.2883 14.613 29.4226 14.5886 29.5447 14.5275C29.5935 14.5031 34.5014 12.0125 36.9188 11.2434C37.3583 11.1091 37.6024 10.6329 37.4559 10.1934C37.3216 9.75389 36.8577 9.50972 36.406 9.64401C33.8544 10.4498 28.9831 12.9282 28.7755 13.0258C28.3604 13.2334 28.2017 13.7339 28.4092 14.149C28.5802 14.4421 28.8732 14.613 29.1662 14.613Z" fill="#00093C"/>
<path d="M49.1769 12.9404C48.713 12.9404 48.3467 13.3189 48.3467 13.7706V46.2703C48.3467 47.6499 47.2235 48.7731 45.8439 48.7731H25.8338V46.8564C27.0546 46.4291 30.2167 45.4402 33.3299 45.4402C40.5942 45.4402 45.5143 47.0517 45.5631 47.0639C45.8195 47.1494 46.0881 47.1005 46.3079 46.954C46.5276 46.7953 46.6497 46.5512 46.6497 46.2826V9.60742C46.6497 9.21674 46.3811 8.87489 46.0026 8.78943C46.0026 8.78943 45.3434 8.64293 44.2324 8.43538C43.7806 8.34992 43.3411 8.65514 43.2679 9.10686C43.1824 9.55859 43.4876 9.9981 43.9394 10.0836C44.3667 10.1568 44.7207 10.2301 45.0015 10.2911V45.1716C43.1092 44.671 38.9216 43.7798 33.3299 43.7798C29.7039 43.7798 26.1268 44.9762 25.028 45.3791C24.0513 44.9396 21.0845 43.7798 17.4952 43.7798C11.757 43.7798 7.02004 44.732 4.99338 45.2082V10.2545C6.65378 9.83939 11.5739 8.77722 17.4952 8.77722C20.5351 8.77722 23.1356 9.72951 24.1611 10.1568V42.9496C24.1611 43.2548 24.3199 43.5234 24.5885 43.6699C24.8448 43.8164 25.1745 43.8164 25.4309 43.6577C25.5163 43.6088 33.7694 38.6765 41.0947 36.2347C41.4366 36.1249 41.6685 35.8074 41.6685 35.4412V1.26883C41.6685 1.00024 41.5342 0.743855 41.3145 0.585141C41.0947 0.426427 40.8017 0.3898 40.5453 0.48747C33.8793 2.99027 27.1279 7.19008 27.0668 7.22671C26.6762 7.47089 26.5541 7.98365 26.7982 8.37433C27.0424 8.76502 27.5552 8.8871 27.9459 8.64293C28.0069 8.6063 33.8793 4.95588 40.0081 2.48971V34.8429C34.3188 36.8208 28.3732 40.0439 25.8338 41.4967V9.60742C25.8338 9.28999 25.6506 9.00919 25.3698 8.86269C25.2233 8.78943 21.8049 7.10462 17.4952 7.10462C9.96235 7.10462 4.1754 8.72839 3.93122 8.80164C3.57717 8.89931 3.33299 9.22895 3.33299 9.60742V46.2826C3.33299 46.5389 3.45508 46.7953 3.66263 46.9418C3.80914 47.0517 3.98006 47.1128 4.16319 47.1128C4.23644 47.1128 4.3219 47.1005 4.39516 47.0761C4.4562 47.0639 10.2187 45.4402 17.5074 45.4402C20.5596 45.4402 23.16 46.3924 24.1734 46.8197V48.7731H4.16319C2.7836 48.7731 1.66039 47.6499 1.66039 46.2703V13.7706C1.66039 13.3067 1.28192 12.9404 0.830197 12.9404C0.366263 12.9404 0 13.3189 0 13.7706V46.2703C0 48.5656 1.86794 50.4335 4.16319 50.4335H45.8317C48.127 50.4335 49.9949 48.5656 49.9949 46.2703V13.7706C50.0071 13.3189 49.6286 12.9404 49.1769 12.9404Z" fill="#00093C"/>
<path d="M28.4229 19.1547C28.5694 19.4477 28.8625 19.6064 29.1677 19.6064C29.2898 19.6064 29.4241 19.582 29.5461 19.5209C29.595 19.4965 34.5029 17.0059 36.9202 16.2368C37.3598 16.1025 37.6039 15.6263 37.4574 15.1868C37.3231 14.7473 36.8592 14.5031 36.4075 14.6374C33.8558 15.4432 28.9845 17.9216 28.777 18.0193C28.3863 18.239 28.2154 18.7396 28.4229 19.1547Z" fill="#00093C"/>
<path d="M28.4229 29.1537C28.5694 29.4467 28.8625 29.6054 29.1677 29.6054C29.2898 29.6054 29.4241 29.581 29.5461 29.52C29.595 29.4955 34.5029 27.0049 36.9202 26.2358C37.3598 26.1015 37.6039 25.6254 37.4574 25.1858C37.3231 24.7463 36.8592 24.5021 36.4075 24.6364C33.8558 25.4422 28.9845 27.9206 28.777 28.0183C28.3863 28.238 28.2154 28.7386 28.4229 29.1537Z" fill="#00093C"/>
<path d="M20.1938 15.9072C15.0417 14.6986 9.19369 16.2369 8.94952 16.2979C8.51 16.42 8.24141 16.8717 8.3635 17.3235C8.46117 17.6897 8.80301 17.9461 9.16928 17.9461C9.24253 17.9461 9.31578 17.9339 9.38903 17.9217C9.45008 17.9095 15.0783 16.42 19.8153 17.5432C20.267 17.6531 20.7066 17.3723 20.8164 16.9206C20.9263 16.4566 20.6455 16.0049 20.1938 15.9072Z" fill="#00093C"/>
<path d="M20.1938 20.9005C15.0417 19.6918 9.19369 21.2301 8.94952 21.3034C8.51 21.4255 8.24141 21.8772 8.3635 22.3289C8.46117 22.6952 8.80301 22.9516 9.16928 22.9516C9.24253 22.9516 9.31578 22.9394 9.38903 22.9272C9.45008 22.9149 15.0783 21.4255 19.8153 22.5487C20.267 22.6586 20.7066 22.3778 20.8164 21.926C20.9263 21.4621 20.6455 21.0104 20.1938 20.9005Z" fill="#00093C"/>
<path d="M28.4229 34.1593C28.5694 34.4523 28.8625 34.611 29.1677 34.611C29.2898 34.611 29.4241 34.5866 29.5461 34.5256C29.595 34.5011 34.5029 32.0106 36.9202 31.2414C37.3598 31.1071 37.6039 30.631 37.4574 30.1915C37.3231 29.7519 36.8592 29.5078 36.4075 29.6421C33.8558 30.4478 28.9845 32.9262 28.777 33.0239C28.3863 33.2436 28.2154 33.7442 28.4229 34.1593Z" fill="#00093C"/>
<path d="M20.1938 25.9061C15.0417 24.6974 9.19369 26.2357 8.94952 26.309C8.51 26.4311 8.24141 26.8828 8.3635 27.3345C8.46117 27.713 8.80301 27.9572 9.16928 27.9572C9.24253 27.9572 9.31578 27.945 9.38903 27.9328C9.45008 27.9206 15.0783 26.4311 19.8153 27.5543C20.267 27.6642 20.7066 27.3834 20.8164 26.9316C20.9263 26.4555 20.6455 26.016 20.1938 25.9061Z" fill="#00093C"/>
<path d="M20.1938 35.905C15.0417 34.6964 9.19369 36.2347 8.94952 36.2957C8.51 36.4178 8.24141 36.8695 8.3635 37.3213C8.46117 37.6997 8.80301 37.9439 9.16928 37.9439C9.24253 37.9439 9.31578 37.9317 9.38903 37.9195C9.45008 37.9073 15.0783 36.4178 19.8153 37.541C20.267 37.6387 20.7066 37.3701 20.8164 36.9184C20.9263 36.4666 20.6455 36.0149 20.1938 35.905Z" fill="#00093C"/>
<path d="M20.1938 30.9117C15.0417 29.7031 9.19369 31.2414 8.94952 31.3146C8.51 31.4367 8.24141 31.8884 8.3635 32.3402C8.46117 32.7186 8.80301 32.9628 9.16928 32.9628C9.24253 32.9628 9.31578 32.9506 9.38903 32.9384C9.45008 32.9262 15.0783 31.4367 19.8153 32.5599C20.267 32.6698 20.7066 32.389 20.8164 31.9373C20.9263 31.4611 20.6455 31.0094 20.1938 30.9117Z" fill="#00093C"/>
</svg>
